<svg xmlns="http://www.w3.org/2000/svg" xml:space="preserve" fill-rule="evenodd" stroke-linejoin="round" stroke-miterlimit="2" clip-rule="evenodd" viewBox="0 0 592 151"><g fill-rule="nonzero"><path d="M202.407 31.37h8.95l13.246 39.012 13.161-39.012h8.853V77.51h-5.938V50.287c0-.965.022-2.52.065-4.663.043-2.197.064-4.555.064-7.02L227.652 77.51h-6.19l-13.246-38.905v1.394c0 1.125.027 2.893.075 5.198.054 2.304.08 4.019.08 5.09V77.51h-5.964V31.37ZM249.334 31.37h7.288l13.247 22.185L283.12 31.37h7.314L273.01 58.914V77.51h-6.249V58.914L249.334 31.37Z"/></g><g fill-rule="nonzero"><path d="M325.1 72.726c-3.456 3.161-7.871 4.77-13.251 4.77-6.656 0-11.891-2.144-15.696-6.431-3.81-4.287-5.718-10.182-5.718-17.63 0-8.092 2.165-14.309 6.5-18.703 3.767-3.804 8.564-5.68 14.383-5.68 7.786 0 13.477 2.519 17.078 7.663 1.989 2.84 3.055 5.734 3.205 8.628h-9.673c-.627-2.198-1.43-3.912-2.416-5.038-1.758-1.982-4.368-3-7.819-3-3.515 0-6.29 1.393-8.322 4.233-2.03 2.84-3.044 6.86-3.044 12.057 0 5.198 1.072 9.056 3.216 11.682 2.148 2.572 4.876 3.858 8.182 3.858 3.392 0 5.975-1.125 7.754-3.322.987-1.179 1.801-3 2.45-5.359h9.576c-.836 5.037-2.97 9.11-6.404 12.272ZM356.139 77.495c-6.613 0-11.666-1.822-15.166-5.412-4.688-4.394-7.03-10.771-7.03-19.077 0-8.467 2.342-14.844 7.03-19.078 3.5-3.644 8.553-5.412 15.166-5.412 6.618 0 11.671 1.768 15.17 5.412 4.668 4.234 6.999 10.61 6.999 19.078 0 8.306-2.331 14.683-6.999 19.077-3.499 3.59-8.552 5.412-15.17 5.412Zm9.142-12.432c2.24-2.84 3.36-6.86 3.36-12.057 0-5.198-1.126-9.217-3.376-12.058-2.251-2.84-5.295-4.233-9.126-4.233-3.826 0-6.886 1.393-9.164 4.233-2.283 2.84-3.424 6.86-3.424 12.058 0 5.198 1.141 9.217 3.424 12.057 2.278 2.84 5.338 4.233 9.164 4.233 3.831 0 6.88-1.393 9.142-4.233ZM391.324 76.209h-9.008v-46.3h14.067l8.413 36.386 8.354-36.386h13.906v46.3h-9.008V44.914c0-.911.011-2.197.032-3.805.022-1.607.033-2.894.033-3.751l-8.762 38.851h-9.388l-8.698-38.851c0 .857.011 2.144.032 3.751.022 1.608.027 2.894.027 3.805v31.295ZM452.478 59.543h-9.828V76.21h-9.608v-46.3h20.16c4.646 0 8.354 1.18 11.114 3.59 2.765 2.412 4.147 6.056 4.147 11.093 0 5.466-1.382 9.325-4.147 11.575-2.76 2.25-6.71 3.376-11.838 3.376Zm4.523-9.645c1.254-1.072 1.886-2.84 1.886-5.252 0-2.411-.637-4.126-1.902-5.144-1.265-1.019-3.038-1.555-5.321-1.555h-9.014v13.665h9.014c2.283 0 4.062-.59 5.337-1.714ZM495.096 66.67h-17.051l-3.205 9.539h-10.106l16.515-46.3h10.927l16.387 46.3h-10.487l-2.98-9.539Zm-2.7-7.93-5.777-18.22-5.97 18.22h11.747ZM548.652 76.209h-9.673l-18.9-32.903V76.21h-9.013v-46.3h10.138l18.434 32.314V29.909h9.014v46.3ZM591.811 29.91 576.33 58.792v17.416h-9.673V58.793l-16.012-28.884h11.398l9.609 20.15 9.2-20.15h10.96Z"/></g><g fill-rule="nonzero"><path d="M205.087 90.584c.049-1.35.282-2.332.702-2.945.755-1.105 2.21-1.657 4.37-1.657h.629c.214.03.46.03.736.061v2.946c-.338 0-.58-.03-.727-.03h-.424c-.982 0-1.57.245-1.76.736-.194.521-.29 1.81-.29 3.896h3.201v2.547h-3.237v16.63h-3.2v-16.63h-2.68v-2.547h2.68v-3.007ZM212.757 93.5h3.075v3.344c.252-.645.868-1.442 1.85-2.363.985-.951 2.117-1.411 3.4-1.411.058 0 .16 0 .304.03.144 0 .39.031.74.062v3.436c-.194-.061-.372-.061-.532-.092h-.53c-1.63 0-2.885.522-3.76 1.565-.874 1.043-1.313 2.24-1.313 3.62v11.078h-3.234v-19.27ZM231.106 93.07c1.366 0 2.691.337 3.974.982 1.282.613 2.258 1.472 2.93 2.485.647.951 1.077 2.086 1.295 3.375.19.89.288 2.301.288 4.265H225.48c.058 1.933.521 3.529 1.384 4.695.862 1.196 2.2 1.78 4.01 1.78 1.688 0 3.038-.553 4.044-1.688a5.552 5.552 0 0 0 1.224-2.24h3.182c-.086.706-.365 1.503-.837 2.363a9.344 9.344 0 0 1-1.59 2.147c-.985.952-2.2 1.596-3.651 1.933-.78.185-1.66.277-2.642.277-2.396 0-4.43-.86-6.097-2.608-1.663-1.75-2.497-4.204-2.497-7.334 0-3.099.837-5.584 2.516-7.517 1.678-1.933 3.872-2.915 6.581-2.915Zm5.161 8.53c-.132-1.412-.439-2.516-.917-3.375-.887-1.535-2.369-2.332-4.443-2.332-1.485 0-2.731.552-3.737 1.626-1.007 1.074-1.54 2.424-1.602 4.08h10.7ZM249.743 93.07c1.366 0 2.691.337 3.974.982 1.283.613 2.258 1.472 2.93 2.485.648.951 1.077 2.086 1.295 3.375.19.89.285 2.301.285 4.265h-14.11c.057 1.933.52 3.529 1.383 4.695.862 1.196 2.2 1.78 4.01 1.78 1.688 0 3.038-.553 4.044-1.688a5.546 5.546 0 0 0 1.222-2.24h3.181c-.082.706-.362 1.503-.834 2.363a9.264 9.264 0 0 1-1.593 2.147c-.981.952-2.197 1.596-3.648 1.933-.78.185-1.66.277-2.642.277-2.4 0-4.43-.86-6.097-2.608-1.666-1.75-2.497-4.204-2.497-7.334 0-3.099.837-5.584 2.516-7.517 1.678-1.933 3.872-2.915 6.581-2.915Zm5.158 8.53c-.132-1.412-.435-2.516-.914-3.375-.89-1.535-2.369-2.332-4.443-2.332-1.485 0-2.73.552-3.737 1.626-1.01 1.074-1.54 2.424-1.602 4.08h10.696ZM260.452 86.35h3.237v26.41h-3.237zM274.342 110.682c2.145 0 3.615-.828 4.413-2.455.798-1.595 1.196-3.405 1.196-5.4 0-1.81-.288-3.252-.865-4.388-.908-1.78-2.48-2.67-4.71-2.67-1.976 0-3.415.768-4.314 2.271-.899 1.504-1.347 3.345-1.347 5.462 0 2.056.448 3.774 1.347 5.124.9 1.381 2.326 2.056 4.28 2.056Zm.126-17.735c2.48 0 4.578.828 6.29 2.485 1.716 1.657 2.572 4.081 2.572 7.303 0 3.1-.755 5.676-2.265 7.702-1.51 2.025-3.854 3.037-7.03 3.037-2.647 0-4.752-.89-6.311-2.7-1.559-1.78-2.335-4.204-2.335-7.21 0-3.253.82-5.83 2.46-7.733 1.642-1.933 3.849-2.884 6.62-2.884ZM292.133 93.162c1.51 0 2.829.368 3.955 1.135.61.399 1.233 1.013 1.869 1.81v-2.424h2.985v17.52c0 2.455-.359 4.358-1.08 5.8-1.34 2.608-3.875 3.897-7.603 3.897-2.075 0-3.817-.46-5.232-1.381-1.414-.92-2.206-2.393-2.375-4.357h3.293c.153.859.466 1.534.932 1.994.734.706 1.884 1.074 3.452 1.074 2.483 0 4.106-.859 4.873-2.639.457-1.012.666-2.853.629-5.492-.648.982-1.424 1.688-2.335 2.179-.912.49-2.117.736-3.615.736-2.086 0-3.912-.767-5.474-2.24-1.565-1.473-2.347-3.927-2.347-7.333 0-3.222.789-5.738 2.366-7.548 1.574-1.81 3.476-2.731 5.707-2.731Zm5.824 9.88c0-2.363-.491-4.142-1.473-5.278-.982-1.166-2.237-1.749-3.759-1.749-2.277 0-3.835 1.074-4.673 3.222-.445 1.135-.666 2.608-.666 4.48 0 2.148.442 3.805 1.323 4.94.88 1.135 2.065 1.688 3.55 1.688 2.325 0 3.96-1.044 4.909-3.13.525-1.197.789-2.578.789-4.173ZM311.614 110.682c2.145 0 3.617-.828 4.415-2.455.795-1.595 1.194-3.405 1.194-5.4 0-1.81-.286-3.252-.862-4.388-.912-1.78-2.483-2.67-4.71-2.67-1.98 0-3.415.768-4.314 2.271-.9 1.504-1.35 3.345-1.35 5.462 0 2.056.45 3.774 1.35 5.124.899 1.381 2.322 2.056 4.277 2.056Zm.126-17.735c2.482 0 4.578.828 6.293 2.485 1.715 1.657 2.571 4.081 2.571 7.303 0 3.1-.755 5.676-2.264 7.702-1.513 2.025-3.854 3.037-7.03 3.037-2.651 0-4.753-.89-6.312-2.7-1.558-1.78-2.338-4.204-2.338-7.21 0-3.253.823-5.83 2.464-7.733 1.642-1.933 3.848-2.884 6.616-2.884ZM323.384 108.841h3.759v3.918h-3.759zM331 93.5h3.2v2.73c.767-.92 1.46-1.626 2.083-2.056 1.068-.736 2.28-1.104 3.633-1.104 1.535 0 2.768.399 3.704 1.135.528.43 1.006 1.074 1.439 1.902.718-1.012 1.565-1.78 2.534-2.27.97-.522 2.062-.767 3.271-.767 2.59 0 4.351.95 5.287 2.823.503 1.012.755 2.362.755 4.05v12.826h-3.363V99.39c0-1.29-.32-2.179-.96-2.64-.642-.49-1.424-.736-2.348-.736-1.27 0-2.362.43-3.28 1.289-.917.86-1.374 2.27-1.374 4.265v11.2h-3.293v-12.58c0-1.29-.153-2.24-.466-2.854-.491-.89-1.409-1.35-2.75-1.35-1.224 0-2.334.49-3.335 1.442-1 .92-1.503 2.639-1.503 5.124v10.218H331v-19.27ZM367.848 93.07c1.365 0 2.69.337 3.973.982 1.283.613 2.259 1.472 2.93 2.485.648.951 1.08 2.086 1.295 3.375.19.89.289 2.301.289 4.265H362.22c.062 1.933.522 3.529 1.384 4.695.865 1.196 2.2 1.78 4.01 1.78 1.691 0 3.038-.553 4.045-1.688a5.516 5.516 0 0 0 1.224-2.24h3.182c-.083.706-.362 1.503-.838 2.363a9.344 9.344 0 0 1-1.59 2.147c-.981.952-2.2 1.596-3.65 1.933-.78.185-1.66.277-2.643.277-2.396 0-4.427-.86-6.093-2.608-1.666-1.75-2.501-4.204-2.501-7.334 0-3.099.84-5.584 2.52-7.517 1.674-1.933 3.868-2.915 6.578-2.915Zm5.16 8.53c-.131-1.412-.438-2.516-.917-3.375-.887-1.535-2.369-2.332-4.44-2.332-1.488 0-2.734.552-3.74 1.626-1.006 1.074-1.54 2.424-1.602 4.08h10.7Z"/></g><path d="m75.91 150.2-.35-.15c-1.64-.74-11.79-5.24-22.55-10.01-16.059-7.11-37.163-16.62-51.559-23.24L0 116.13V20.6l1.545.48c2.271.7 6.115 1.9 8.541 2.67l3.032.95.211 22.4c.123 13.11.224 30.68.224 39.05v15.22c0 .8.477 1.53 1.213 1.84l61.384 26.27-.11 11.08c-.04 3.87-.09 7.35-.13 9.64Zm79.82-130.76c.08 4.99.27 19.56.27 47.61V116l-1.1.5c-1.25.56-8.13 3.72-15.29 7.01-7.14 3.28-22.03 10.07-33.07 15.09-11.05 5.02-21.88 9.94-24.07 10.94-.46.21-.93.42-1.38.62-.04-2.36-.08-5.96-.08-9.57v-11.34l.83-.41c2.57-1.26 53.52-24.76 54.5-25.13l.77-.29c.77-.3 1.29-1.04 1.29-1.87V24.77c1.16-.34 5.55-1.69 10.24-3.15 2.78-.87 5.34-1.66 7.09-2.18ZM27.843 29.62c3.549 1.02 38.727 11.59 46.027 13.84l2.29.7-.05 14.86c-.03 8.99-.07 25.73-.08 37.2-.01 9.3-.11 14.97-.17 17.72-4.22-1.77-13.38-5.57-23.79-9.86-11.417-4.7-21.192-8.78-24.418-10.18-.069-4.03-.093-17.36-.052-32.99.048-18.41.097-27.09.23-30.96l.013-.33Zm96.517-.33c.09 3.97.25 13.87.25 31.83v33.24l-2.28 1.03c-3.25 1.46-21.34 9.47-37.16 16.43-1.53.68-3.07 1.34-4.29 1.85 0-5.68.02-18.87.05-34.12l.09-35.57 15.43-5.21c9.24-3.12 19.76-6.7 23.39-7.96 1.58-.55 3.25-1.1 4.52-1.52ZM78.05 14.82c.64.15 3.69.85 6.39 1.57 19.14 5.13 29.67 7.95 35.15 9.43-2.24.77-5.32 1.82-9.4 3.16l-24.04 7.93-7.68 2.53-10.37-3.06c-6.03-1.78-17.42-5.15-25.31-7.49-3.43-1.01-6.688-1.97-9.342-2.74 4.8-1.26 12.702-3.31 24.792-6.37 10.03-2.54 18.56-4.69 19.81-4.96ZM78.04 0c2.63.59 13.3 3.07 35.8 8.29 14.48 3.37 29.76 6.88 33.94 7.81l1.49.34c-1.82.58-4.08 1.28-6.76 2.1l-6.1 1.85-13.92-3.57c-7.95-2.03-21.08-5.4-29.17-7.48l-14.7-3.77a1.99 1.99 0 0 0-.97-.01L50.68 12c-14.855 3.55-28.905 6.93-31.227 7.51l-3.673.93-8.335-2.6c-.789-.25-1.537-.49-2.234-.72 7.341-1.75 22.26-5.23 48.599-11.37C65.78 2.96 75.85.58 77.8.07c.08-.02.17-.05.24-.07Z"/></svg>